<svg xmlns="http://www.w3.org/2000/svg" viewBox="170 170 400 400">
   <path fill="#1f9cef" d="m468.22 437.82c-10.797-2.3906-22 2.7227-31.965 3.543-19.949 1.6641-43.074-6.0156-53.277 8.8789 1.1172 14.273 26.047 4.7422 30.191 15.984 16.523-6.1406 58.57 8.582 63.934-19.535-2.2227-3.6914-6.9727-4.8633-8.8828-8.8711z"/>
   <path fill="#1f9cef" d="m558.79 206.95c-37.562-6.0078-75.02-2.207-108.33-3.5508-22.125-0.89453-37.789-5.6523-51.5 0-0.82812-6.1641 9.6406-1.0195 10.656-5.3281-2.5898-0.96875-9.1836 2.0703-8.8789-1.7773h-1.7773c5.1484 6.2617-6.7344 6.3047-8.8789 1.7773v-1.7773h-12.43c3.9961 4.1523-8.9609 7.7383-12.43 5.3281-1.2422-0.86719 11.84-3.6484 3.5508-5.3281h-3.5508c-5.6328 6.4766-16.629-0.38672-23.086 7.1055 3.3086-8.0352-6.3867-3.0859-7.1055-7.1055h-1.7773c-2.582 2.7461-6.9336 3.7305-12.43 3.5508v-3.5508h-14.207c-26.105 6.3203-51.562-0.94141-72.812 7.1055 0.29688-2.0703 2.8047-1.9297 5.3281-1.7773-12.379-4.5664-50.09-8.7227-55.055 8.8789v101.23c2.0703 33.461 3.3906 68.359 3.5508 104.78 0.19922 45.258-6.4805 99.348 3.5508 133.2 130.01 1.7305 245.89-2.3828 369.39-5.3359 2.4883-102.06 0.26953-224.9-1.7812-337.42zm-14.207 324.99c-44.805-2.25-65.242-1.4883-108.33-5.3281 0.15625-3.4414-27.031 6.1562-39.07-1.7773 4.6602 7.3789-6.0898 2.9609-10.648-3.543-8.3086 0.57031-12.164 5.5938-21.312 5.3281 0.44531-1.9297 3.5312-1.207 3.5508-3.5508-34.809 6.3633-93.297-6.2148-122.54 7.1055-4.1719-0.023437 0.65234-4.8398 3.5508-3.543-10.707-3.8984-26.328 1.2656-39.07-3.5508 1.1992-20.637 4.7578-47.113-1.7773-62.148 5.707-70.395-1.5039-159.98 1.7773-234.42 95.996-4.7344 190.16-3.6758 301.91-3.5508 11.551 0.007812 24.109-6.3359 33.742 3.5508-3.7227 94.441 3.9922 204.64-1.7773 305.43z"/>
   <path fill="#1f9cef" d="m306.61 308.18c-1.1562-6.3633-9.4141-19.891-24.863-17.758-20.41 20.785 16.988 33.203 30.191 46.176 1.5039 1.4727 0.40625 5.4766 1.7773 7.1055 12.504 14.812 31.051 19.98 35.52 33.742-4.6016 2.5-8.1992 6.0078-12.43 8.8789-15.148 26.297-46.094 36.785-56.828 67.484 13.281 15.027 27.652-16.812 35.52-12.438-4.8828-4.4258 7.3633-6.7422 7.1055-12.43-1.4336 13.371 15.871-5.0547 12.43-12.43 12.785 2.418 20.461-14.852 26.641-24.863 5.3867 6.4141 17.062-12.75 10.656-24.863-22.613-18.832-40.848-42.039-65.719-58.605z"/>
</svg>